<svg width="242" height="72" viewBox="0 0 242 72" fill="none" xmlns="http://www.w3.org/2000/svg">
<path d="M240 37.5L240.644 38.2649L241.525 37.5229L240.667 36.7548L240 37.5ZM231.167 28.2548C230.755 27.8865 230.123 27.9216 229.755 28.3332C229.386 28.7448 229.422 29.377 229.833 29.7452L231.167 28.2548ZM229.856 44.7351C229.433 45.0908 229.379 45.7217 229.735 46.1441C230.091 46.5666 230.722 46.6207 231.144 46.2649L229.856 44.7351ZM189.5 38.5L240 38.5V36.5L189.5 36.5V38.5ZM240.667 36.7548L231.167 28.2548L229.833 29.7452L239.333 38.2452L240.667 36.7548ZM239.356 36.7351L229.856 44.7351L231.144 46.2649L240.644 38.2649L239.356 36.7351Z" fill="black"/>
</svg>
