<svg width="159" height="65" viewBox="0 0 159 65" fill="none" xmlns="http://www.w3.org/2000/svg">
<g clip-path="url(#clip0_7689_1448)">
<g clip-path="url(#clip1_7689_1448)">
<path d="M0 7.84375H40.4054V16.8325H8.98878V48.2492H0V7.84375Z" fill="#0074A7"/>
<path d="M15.5078 48.2489H40.4032V23.3535H31.4365V39.2822H15.5078V48.2489Z" fill="black"/>
<path d="M49.4375 27.7602V8.15234H57.2366C58.7567 8.15234 60.0125 8.35063 61.026 8.74719C62.0394 9.14375 62.8105 9.7386 63.3393 10.5317C63.868 11.3249 64.1324 12.3383 64.1324 13.55C64.1324 14.4092 63.9341 15.1142 63.5596 15.665C63.185 16.2158 62.7224 16.6564 62.1936 16.9649C61.6649 17.2953 61.1582 17.5597 60.6955 17.8021L60.2328 16.9428C61.1582 17.031 61.9954 17.2953 62.7224 17.6919C63.4715 18.0885 64.0663 18.6392 64.5069 19.3443C64.9475 20.0493 65.1899 20.9085 65.1899 21.9219C65.1899 23.2658 64.8815 24.3674 64.2425 25.2266C63.6257 26.0858 62.7444 26.7027 61.6649 27.1213C60.5633 27.5399 59.3296 27.7382 57.9636 27.7382H49.4375V27.7602ZM53.4252 16.0836H57.545C57.9857 16.0836 58.3822 16.0175 58.7568 15.8853C59.1313 15.7531 59.4618 15.5328 59.7041 15.2024C59.9464 14.8719 60.0786 14.4313 60.0786 13.8364C60.0786 12.867 59.8143 12.2281 59.3075 11.8756C58.7788 11.5231 58.1178 11.3469 57.3027 11.3469H53.4472V16.0836H53.4252ZM53.4472 24.5657H57.7653C58.3602 24.5657 58.8889 24.4775 59.3957 24.3233C59.9024 24.1691 60.2989 23.8827 60.6074 23.4641C60.9158 23.0455 61.07 22.4947 61.07 21.7677C61.07 21.2169 60.9819 20.7763 60.7836 20.4238C60.5853 20.0713 60.321 19.8069 60.0125 19.6307C59.6821 19.4544 59.3296 19.3222 58.911 19.2561C58.4924 19.19 58.0958 19.146 57.6772 19.146H53.4472V24.5657Z" fill="black"/>
<path d="M68.2305 27.7602V8.15234H77.3735C79.4885 8.15234 81.1408 8.65906 82.3085 9.6725C83.4761 10.6859 84.071 12.2061 84.071 14.211C84.071 15.1583 83.8727 16.0396 83.4982 16.8988C83.1236 17.758 82.5508 18.463 81.8238 19.0358C81.0968 19.6086 80.1935 19.9611 79.136 20.0933L79.158 18.7714L85.0404 27.7602H80.0172L74.8399 19.0799L76.6244 20.6661H72.2181V27.7602H68.2305ZM72.2181 17.5817H76.5142C77.5717 17.5817 78.3869 17.3174 78.9597 16.8107C79.5325 16.3039 79.8189 15.4888 79.8189 14.4092C79.8189 13.4399 79.5766 12.6688 79.1139 12.14C78.6513 11.6113 77.9022 11.3469 76.8888 11.3469H72.2402V17.5817H72.2181Z" fill="black"/>
<path d="M91.8677 8.15234H87.8359V27.7602H91.8677V8.15234Z" fill="black"/>
<path d="M95.6797 27.7602V8.15234H103.06C106.321 8.15234 108.722 8.9675 110.286 10.6199C111.851 12.2722 112.622 14.7177 112.622 17.9342C112.622 21.1729 111.851 23.6183 110.286 25.2707C108.722 26.923 106.321 27.7602 103.06 27.7602H95.6797ZM99.6894 24.5657H102.642C104.624 24.5657 106.101 24.0369 107.092 22.9794C108.061 21.9219 108.568 20.2475 108.568 17.9563C108.568 15.665 108.083 13.9906 107.092 12.9331C106.101 11.8756 104.624 11.3469 102.642 11.3469H99.6894V24.5657Z" fill="black"/>
<path d="M124.303 28.1133C122.342 28.1133 120.646 27.7608 119.236 27.0558C117.826 26.3508 116.746 25.2493 115.975 23.7511C115.226 22.253 114.852 20.3143 114.852 17.9349C114.852 15.5996 115.226 13.6828 115.975 12.1627C116.724 10.6425 117.804 9.54094 119.236 8.81391C120.646 8.10891 122.32 7.73438 124.259 7.73438C125.449 7.73438 126.616 7.84453 127.762 8.08688C128.908 8.32922 129.987 8.65969 131.067 9.12235V12.8677C129.943 12.2949 128.886 11.8322 127.894 11.4797C126.903 11.1272 125.845 10.9509 124.788 10.9509C123.51 10.9509 122.43 11.1713 121.571 11.6339C120.69 12.0745 120.051 12.8236 119.61 13.837C119.17 14.8505 118.949 16.2164 118.949 17.9349C118.949 19.6313 119.17 20.9752 119.632 21.9886C120.073 23.0021 120.734 23.7511 121.593 24.2138C122.452 24.6765 123.466 24.8968 124.655 24.8968C125.272 24.8968 125.845 24.8527 126.374 24.7646C126.903 24.6765 127.409 24.5443 127.894 24.368V20.2922H124.215V17.0536H131.882V26.1746C130.714 26.7915 129.48 27.2762 128.203 27.6066C126.925 27.9371 125.625 28.1133 124.303 28.1133Z" fill="black"/>
<path d="M135.691 27.7602V8.15234H148.844V11.3469H139.723V16.326H147.654V19.5646H139.679V24.5657H148.844V27.7602H135.691Z" fill="black"/>
<path d="M49.2812 48.0725V31.8574H51.0217V39.1498H59.6139V31.8574H61.3544V48.0725H59.6139V40.8021H51.0217V48.0725H49.2812Z" fill="#0074A7"/>
<path d="M68.8477 48.0725V31.8574H79.0261V33.5098H70.5881V39.1057H78.0127V40.8021H70.5881V46.4201H79.0261V48.0725H68.8477Z" fill="#0074A7"/>
<path d="M84.7109 48.0725L91.1441 31.8574H92.8846L99.2957 48.0725H97.445L91.827 33.4877L92.1796 33.4437L86.5836 48.0725H84.7109ZM87.5309 43.0053L88.28 41.3309H96.1893L96.2994 43.0053H87.5309Z" fill="#0074A7"/>
<path d="M105.199 48.0725V31.8574H106.94V46.354H115.179V48.0725H105.199Z" fill="#0074A7"/>
<path d="M123.417 48.0725V33.5098H117.711V31.8574H130.842V33.5098H125.158V48.0725H123.417Z" fill="#0074A7"/>
<path d="M136.77 48.0725V31.8574H138.51V39.1498H147.102V31.8574H148.843V48.0725H147.102V40.8021H138.51V48.0725H136.77Z" fill="#0074A7"/>
<path d="M0 62.701V55.6289H0.925315V58.537H4.60454V55.6289H5.52986V62.701H4.60454V59.3742H0.925315V62.701H0Z" fill="black"/>
<path d="M11.0589 61.0495L11.9622 61.1597C11.83 61.6885 11.5656 62.085 11.1691 62.3714C10.7945 62.6578 10.3099 62.812 9.71501 62.812C8.96594 62.812 8.3711 62.5917 7.93047 62.1291C7.48984 61.6664 7.26953 61.0275 7.26953 60.1903C7.26953 59.3311 7.48984 58.6702 7.93047 58.1855C8.3711 57.7008 8.94391 57.4805 9.64891 57.4805C10.3319 57.4805 10.8827 57.7228 11.3233 58.1855C11.7639 58.6481 11.9622 59.3091 11.9622 60.1463C11.9622 60.1903 11.9622 60.2784 11.9622 60.3886H8.17281C8.19485 60.9614 8.3711 61.38 8.6575 61.6885C8.94391 61.9969 9.29641 62.1291 9.71501 62.1291C10.0234 62.1291 10.3099 62.041 10.5302 61.8867C10.7505 61.6885 10.9267 61.4241 11.0589 61.0495ZM8.21688 59.6616H11.0589C11.0149 59.2209 10.9047 58.9125 10.7284 58.6922C10.442 58.3617 10.0895 58.1855 9.64891 58.1855C9.25235 58.1855 8.92188 58.3177 8.6575 58.582C8.39313 58.8464 8.23891 59.1989 8.21688 59.6616Z" fill="black"/>
<path d="M16.9633 62.085C16.6328 62.3494 16.3244 62.5477 16.038 62.6578C15.7516 62.768 15.4211 62.8341 15.0906 62.8341C14.5398 62.8341 14.0992 62.7019 13.7908 62.4155C13.4823 62.1511 13.3281 61.7986 13.3281 61.358C13.3281 61.1156 13.3942 60.8733 13.5044 60.675C13.6145 60.4767 13.7688 60.3005 13.945 60.1683C14.1213 60.0361 14.3416 59.948 14.5619 59.8819C14.7381 59.8378 14.9805 59.7938 15.333 59.7497C16.038 59.6616 16.5447 59.5734 16.8752 59.4413C16.8752 59.3311 16.8752 59.243 16.8752 59.2209C16.8752 58.8684 16.787 58.6261 16.6328 58.4719C16.4125 58.2736 16.082 58.1855 15.6414 58.1855C15.2448 58.1855 14.9364 58.2516 14.7381 58.4058C14.5398 58.538 14.4077 58.8023 14.2975 59.1549L13.4603 59.0447C13.5264 58.6922 13.6586 58.3838 13.8348 58.1634C14.0111 57.9431 14.2755 57.7669 14.6059 57.6567C14.9364 57.5466 15.333 57.4805 15.7736 57.4805C16.2142 57.4805 16.5667 57.5245 16.8311 57.6347C17.0955 57.7448 17.2938 57.877 17.4259 58.0313C17.5581 58.1855 17.6463 58.3838 17.6903 58.6261C17.7124 58.7803 17.7344 59.0447 17.7344 59.4192V60.5869C17.7344 61.402 17.7564 61.9088 17.8005 62.1291C17.8445 62.3494 17.9106 62.5477 18.0208 62.746H17.1175C17.0294 62.5256 16.9853 62.3274 16.9633 62.085ZM16.8752 60.1463C16.5667 60.2784 16.082 60.3886 15.4652 60.4767C15.1127 60.5208 14.8483 60.5869 14.7161 60.653C14.5619 60.7191 14.4517 60.8072 14.3856 60.9394C14.2975 61.0716 14.2755 61.2038 14.2755 61.358C14.2755 61.5783 14.3636 61.7766 14.5398 61.9308C14.7161 62.085 14.9805 62.1731 15.3109 62.1731C15.6414 62.1731 15.9499 62.107 16.1922 61.9528C16.4566 61.7986 16.6328 61.6003 16.765 61.358C16.8531 61.1597 16.8972 60.8733 16.8972 60.4988V60.1463H16.8752Z" fill="black"/>
<path d="M20.535 55.6289H19.6758V62.701H20.535V55.6289Z" fill="black"/>
<path d="M24.3442 61.9305L24.4764 62.7016C24.2341 62.7456 24.0138 62.7897 23.8155 62.7897C23.507 62.7897 23.2647 62.7456 23.0884 62.6355C22.9122 62.5253 22.802 62.4152 22.7139 62.2389C22.6478 62.0847 22.6038 61.7322 22.6038 61.2034V58.2513H21.9648V57.5683H22.6038V56.2905L23.463 55.7617V57.5463H24.3222V58.2292H23.463V61.2475C23.463 61.4899 23.485 61.6441 23.507 61.7322C23.5291 61.7983 23.5952 61.8644 23.6613 61.9085C23.7273 61.9525 23.8375 61.9745 23.9477 61.9745C24.0798 61.9745 24.19 61.9525 24.3442 61.9305Z" fill="black"/>
<path d="M25.7969 62.701V55.6289H26.6561V58.1625C27.0527 57.6999 27.5594 57.4575 28.1763 57.4575C28.5508 57.4575 28.8813 57.5236 29.1677 57.6778C29.4541 57.832 29.6524 58.0303 29.7625 58.2947C29.8727 58.5591 29.9388 58.9336 29.9388 59.4403V62.6789H29.0795V59.4403C29.0795 58.9997 28.9914 58.6913 28.7931 58.493C28.5949 58.2947 28.3305 58.2066 28 58.2066C27.7356 58.2066 27.4933 58.2727 27.273 58.4049C27.0527 58.537 26.8764 58.7133 26.7883 58.9556C26.7002 59.1759 26.6341 59.5064 26.6341 59.903V62.701H25.7969Z" fill="black"/>
<path d="M35.1863 60.8287L36.0455 60.9388C35.9574 61.5337 35.715 61.9963 35.3405 62.3268C34.9659 62.6573 34.4813 62.8335 33.9305 62.8335C33.2255 62.8335 32.6747 62.6132 32.2561 62.1506C31.8375 61.6879 31.6172 61.027 31.6172 60.1898C31.6172 59.639 31.7053 59.1543 31.8816 58.7357C32.0578 58.3171 32.3442 58.0087 32.7188 57.8104C33.0933 57.6121 33.4898 57.502 33.9305 57.502C34.4813 57.502 34.9439 57.6341 35.2964 57.9205C35.6489 58.207 35.8692 58.6035 35.9794 59.1102L35.1422 59.2424C35.0541 58.8899 34.9219 58.6476 34.7236 58.4713C34.5253 58.2951 34.283 58.207 33.9966 58.207C33.5559 58.207 33.2034 58.3612 32.9391 58.6696C32.6747 58.978 32.5205 59.4848 32.5205 60.1677C32.5205 60.8507 32.6527 61.3574 32.917 61.6659C33.1814 61.9743 33.5119 62.1285 33.9525 62.1285C34.283 62.1285 34.5694 62.0184 34.8117 61.8201C34.988 61.5777 35.1202 61.2693 35.1863 60.8287Z" fill="black"/>
<path d="M40.6938 62.085C40.3633 62.3494 40.0549 62.5477 39.7684 62.6578C39.482 62.768 39.1516 62.8341 38.8211 62.8341C38.2703 62.8341 37.8297 62.7019 37.5213 62.4155C37.2128 62.1511 37.0586 61.7986 37.0586 61.358C37.0586 61.1156 37.1247 60.8733 37.2348 60.675C37.345 60.4767 37.4992 60.3005 37.6755 60.1683C37.8517 60.0361 38.072 59.948 38.2923 59.8819C38.4686 59.8378 38.7109 59.7938 39.0634 59.7497C39.7684 59.6616 40.2752 59.5734 40.6056 59.4413C40.6056 59.3311 40.6056 59.243 40.6056 59.2209C40.6056 58.8684 40.5175 58.6261 40.3633 58.4719C40.143 58.2736 39.8125 58.1855 39.3719 58.1855C38.9753 58.1855 38.6669 58.2516 38.4686 58.4058C38.2703 58.538 38.1381 58.8023 38.028 59.1549L37.2348 59.0447C37.3009 58.6922 37.4331 58.3838 37.6094 58.1634C37.7856 57.9431 38.05 57.7669 38.3805 57.6567C38.7109 57.5466 39.1075 57.4805 39.5481 57.4805C39.9888 57.4805 40.3413 57.5245 40.6056 57.6347C40.87 57.7448 41.0683 57.877 41.2005 58.0313C41.3327 58.1855 41.4208 58.3838 41.4649 58.6261C41.4869 58.7803 41.5089 59.0447 41.5089 59.4192V60.5869C41.5089 61.402 41.531 61.9088 41.575 62.1291C41.6191 62.3494 41.6852 62.5477 41.7953 62.746H40.892C40.7819 62.5256 40.7158 62.3274 40.6938 62.085ZM40.6277 60.1463C40.3192 60.2784 39.8345 60.3886 39.2177 60.4767C38.8652 60.5208 38.6008 60.5869 38.4686 60.653C38.3144 60.7191 38.2042 60.8072 38.1381 60.9394C38.05 61.0716 38.028 61.2038 38.028 61.358C38.028 61.5783 38.1161 61.7766 38.2923 61.9308C38.4686 62.085 38.733 62.1731 39.0634 62.1731C39.3939 62.1731 39.7024 62.107 39.9447 61.9528C40.2091 61.7986 40.3853 61.6003 40.5175 61.358C40.6056 61.1597 40.6497 60.8733 40.6497 60.4988V60.1463H40.6277Z" fill="black"/>
<path d="M43.4219 62.7005V57.5892H44.193V58.3603C44.3913 58.0078 44.5675 57.7655 44.7438 57.6333C44.92 57.5231 45.0963 57.457 45.2945 57.457C45.5809 57.457 45.8894 57.5452 46.1758 57.7434L45.8673 58.5586C45.647 58.4264 45.4488 58.3603 45.2284 58.3603C45.0302 58.3603 44.8759 58.4264 44.7217 58.5366C44.5675 58.6467 44.4573 58.8009 44.3913 59.0213C44.3031 59.3297 44.237 59.6602 44.237 60.0347V62.7225H43.4219V62.7005Z" fill="black"/>
<path d="M50.805 61.0495L51.7083 61.1597C51.5761 61.6885 51.3117 62.085 50.9152 62.3714C50.5406 62.6578 50.0559 62.812 49.4611 62.812C48.712 62.812 48.1172 62.5917 47.6766 62.1291C47.2359 61.6664 47.0156 61.0275 47.0156 60.1903C47.0156 59.3311 47.2359 58.6702 47.6766 58.1855C48.1172 57.7008 48.69 57.4805 49.395 57.4805C50.078 57.4805 50.6288 57.7228 51.0694 58.1855C51.51 58.6481 51.7083 59.3091 51.7083 60.1463C51.7083 60.1903 51.7083 60.2784 51.7083 60.3886H47.8969C47.9189 60.9614 48.0952 61.38 48.3816 61.6885C48.668 61.9969 49.0205 62.1291 49.4391 62.1291C49.7475 62.1291 50.0339 62.041 50.2542 61.8867C50.4745 61.6885 50.6728 61.4241 50.805 61.0495ZM47.963 59.6616H50.805C50.761 59.2209 50.6508 58.9125 50.4745 58.6922C50.1881 58.3617 49.8356 58.1855 49.395 58.1855C48.9984 58.1855 48.668 58.3177 48.4036 58.582C48.1392 58.8464 47.985 59.1989 47.963 59.6616Z" fill="black"/>
<path d="M61.8174 60.2337L62.7427 60.476C62.5444 61.2471 62.1919 61.8199 61.6852 62.2385C61.1785 62.6351 60.5616 62.8334 59.8125 62.8334C59.0634 62.8334 58.4466 62.6792 57.9619 62.3707C57.4772 62.0623 57.1247 61.6217 56.8823 61.0268C56.64 60.432 56.5078 59.8151 56.5078 59.1321C56.5078 58.4051 56.64 57.7441 56.9264 57.2154C57.2128 56.6646 57.6094 56.246 58.1161 55.9596C58.6228 55.6732 59.1956 55.541 59.8345 55.541C60.5395 55.541 61.1344 55.7173 61.6191 56.0918C62.1038 56.4443 62.4342 56.951 62.6325 57.612L61.7072 57.8323C61.553 57.3256 61.3106 56.951 61.0022 56.7087C60.6938 56.4663 60.2972 56.3562 59.8345 56.3562C59.2838 56.3562 58.8431 56.4884 58.4686 56.7527C58.0941 57.0171 57.8517 57.3696 57.6975 57.8102C57.5433 58.2509 57.4772 58.6915 57.4772 59.1762C57.4772 59.771 57.5653 60.2998 57.7416 60.7404C57.9178 61.181 58.1822 61.5335 58.5567 61.7538C58.9313 61.9742 59.3278 62.0843 59.7464 62.0843C60.2752 62.0843 60.7158 61.9301 61.0683 61.6217C61.4428 61.2692 61.7072 60.8285 61.8174 60.2337Z" fill="black"/>
<path d="M64.0664 60.1449C64.0664 59.1975 64.3308 58.4925 64.8595 58.0298C65.3002 57.6553 65.8289 57.457 66.4678 57.457C67.1728 57.457 67.7456 57.6773 68.1863 58.14C68.6269 58.6027 68.8472 59.2416 68.8472 60.0567C68.8472 60.7177 68.7591 61.2244 68.5608 61.621C68.3625 61.9955 68.0761 62.2819 67.7016 62.5022C67.327 62.7005 66.9085 62.8106 66.4678 62.8106C65.7628 62.8106 65.168 62.5903 64.7273 62.1277C64.2867 61.665 64.0664 61.0041 64.0664 60.1449ZM64.9477 60.1449C64.9477 60.8058 65.0799 61.2905 65.3663 61.621C65.6527 61.9514 66.0052 62.1056 66.4458 62.1056C66.8644 62.1056 67.2389 61.9514 67.5253 61.621C67.8117 61.2905 67.9439 60.7838 67.9439 60.1228C67.9439 59.4839 67.7897 58.9992 67.5033 58.6908C67.2169 58.3603 66.8644 58.2061 66.4238 58.2061C65.9831 58.2061 65.6306 58.3603 65.3442 58.6908C65.1019 58.9992 64.9477 59.4839 64.9477 60.1449Z" fill="black"/>
<path d="M70.457 62.7013V57.5901H71.2281V58.3171C71.3823 58.0748 71.6027 57.8545 71.867 57.7223C72.1314 57.568 72.4398 57.502 72.7703 57.502C73.1449 57.502 73.4533 57.5901 73.6956 57.7443C73.938 57.8985 74.1142 58.1188 74.2024 58.4052C74.5989 57.8104 75.1277 57.502 75.7886 57.502C76.2953 57.502 76.6919 57.6341 76.9563 57.9205C77.2206 58.207 77.3749 58.6255 77.3749 59.2204V62.7454H76.5156V59.4848C76.5156 59.1323 76.4936 58.8899 76.4275 58.7357C76.3614 58.5815 76.2733 58.4493 76.1191 58.3612C75.9649 58.273 75.7886 58.229 75.5903 58.229C75.2378 58.229 74.9294 58.3391 74.687 58.5815C74.4447 58.8238 74.3345 59.1984 74.3345 59.7271V62.7013H73.4753V59.3746C73.4753 58.9781 73.4092 58.6916 73.255 58.5154C73.1228 58.3171 72.8805 58.229 72.572 58.229C72.3297 58.229 72.1094 58.2951 71.8891 58.4273C71.6908 58.5595 71.5366 58.7357 71.4484 59.0001C71.3603 59.2424 71.3163 59.5949 71.3163 60.0796V62.7454H70.457V62.7013Z" fill="black"/>
<path d="M79.2461 64.6618V57.5677H80.0392V58.2287C80.2155 57.9643 80.4358 57.766 80.6781 57.6338C80.9205 57.5016 81.1848 57.4355 81.5373 57.4355C81.978 57.4355 82.3525 57.5457 82.683 57.766C83.0134 57.9863 83.2778 58.3168 83.432 58.7134C83.6083 59.132 83.6964 59.5726 83.6964 60.0573C83.6964 60.586 83.6083 61.0487 83.41 61.4673C83.2338 61.8859 82.9474 62.2163 82.5948 62.4367C82.2423 62.657 81.8678 62.7671 81.4713 62.7671C81.1848 62.7671 80.9205 62.701 80.7002 62.5909C80.4798 62.4587 80.2816 62.3045 80.1273 62.1282V64.6178H79.2461V64.6618ZM80.0172 60.1674C80.0172 60.8284 80.1494 61.3131 80.4138 61.6215C80.6781 61.9299 81.0086 62.0841 81.3831 62.0841C81.7577 62.0841 82.0881 61.9299 82.3745 61.5995C82.6389 61.269 82.7931 60.7623 82.7931 60.0793C82.7931 59.4184 82.6609 58.9337 82.3966 58.6032C82.1322 58.2727 81.8017 58.1185 81.4272 58.1185C81.0527 58.1185 80.7222 58.2948 80.4578 58.6473C80.1714 59.0218 80.0172 59.5065 80.0172 60.1674Z" fill="black"/>
<path d="M88.6313 62.085C88.3008 62.3494 87.9924 62.5477 87.7059 62.6578C87.4195 62.768 87.0891 62.8341 86.7586 62.8341C86.2078 62.8341 85.7672 62.7019 85.4588 62.4155C85.1503 62.1511 84.9961 61.7986 84.9961 61.358C84.9961 61.1156 85.0622 60.8733 85.1723 60.675C85.2825 60.4767 85.4367 60.3005 85.613 60.1683C85.7892 60.0361 86.0095 59.948 86.2298 59.8819C86.4061 59.8378 86.6484 59.7938 87.0009 59.7497C87.7059 59.6616 88.2127 59.5734 88.5431 59.4413C88.5431 59.3311 88.5431 59.243 88.5431 59.2209C88.5431 58.8684 88.455 58.6261 88.3008 58.4719C88.0805 58.2736 87.75 58.1855 87.3094 58.1855C86.9128 58.1855 86.6044 58.2516 86.4061 58.4058C86.2078 58.538 86.0756 58.8023 85.9655 59.1549L85.1283 59.0447C85.2164 58.6922 85.3266 58.3838 85.5028 58.1634C85.6791 57.9431 85.9434 57.7669 86.2739 57.6567C86.6044 57.5466 87.0009 57.4805 87.4416 57.4805C87.8822 57.4805 88.2347 57.5245 88.4991 57.6347C88.7635 57.7448 88.9617 57.877 89.0939 58.0313C89.2261 58.1855 89.3142 58.3838 89.3583 58.6261C89.3803 58.7803 89.4024 59.0447 89.4024 59.4192V60.5869C89.4024 61.402 89.4244 61.9088 89.4685 62.1291C89.5125 62.3494 89.5786 62.5477 89.6888 62.746H88.7855C88.7194 62.5256 88.6533 62.3274 88.6313 62.085ZM88.5652 60.1463C88.2567 60.2784 87.772 60.3886 87.1552 60.4767C86.8027 60.5208 86.5383 60.5869 86.4061 60.653C86.2519 60.7191 86.1417 60.8072 86.0756 60.9394C85.9875 61.0716 85.9655 61.2038 85.9655 61.358C85.9655 61.5783 86.0536 61.7766 86.2298 61.9308C86.4061 62.085 86.6705 62.1731 87.0009 62.1731C87.3314 62.1731 87.6399 62.107 87.8822 61.9528C88.1466 61.7986 88.3228 61.6003 88.455 61.358C88.5431 61.1597 88.5872 60.8733 88.5872 60.4988V60.1463H88.5652Z" fill="black"/>
<path d="M91.3633 62.7019V57.5906H92.1344V58.3177C92.5089 57.7448 93.0597 57.4805 93.7647 57.4805C94.0731 57.4805 94.3595 57.5466 94.6239 57.6567C94.8883 57.7669 95.0645 57.9211 95.1967 58.0973C95.3289 58.2736 95.417 58.4939 95.4611 58.7363C95.4831 58.8905 95.5052 59.1769 95.5052 59.5734V62.7239H94.6459V59.6175C94.6459 59.265 94.6019 59.0006 94.5358 58.8244C94.4697 58.6481 94.3595 58.5159 94.1833 58.4058C94.007 58.2956 93.8088 58.2516 93.5884 58.2516C93.2139 58.2516 92.9055 58.3617 92.6411 58.6041C92.3767 58.8464 92.2445 59.287 92.2445 59.948V62.746H91.3633V62.7019Z" fill="black"/>
<path d="M97.4453 55.6289H98.3045V56.6203H97.4453V55.6289ZM97.4453 57.5897H98.3045V62.701H97.4453V57.5897Z" fill="black"/>
<path d="M99.8906 60.1449C99.8906 59.1975 100.155 58.4925 100.684 58.0298C101.124 57.6553 101.653 57.457 102.292 57.457C102.997 57.457 103.57 57.6773 104.01 58.14C104.451 58.6027 104.671 59.2416 104.671 60.0567C104.671 60.7177 104.583 61.2244 104.385 61.621C104.187 61.9955 103.9 62.2819 103.526 62.5022C103.151 62.7005 102.733 62.8106 102.292 62.8106C101.587 62.8106 100.992 62.5903 100.552 62.1277C100.111 61.665 99.8906 61.0041 99.8906 60.1449ZM100.772 60.1449C100.772 60.8058 100.904 61.2905 101.19 61.621C101.477 61.9514 101.829 62.1056 102.27 62.1056C102.689 62.1056 103.063 61.9514 103.35 61.621C103.636 61.2905 103.768 60.7838 103.768 60.1228C103.768 59.4839 103.614 58.9992 103.328 58.6908C103.041 58.3603 102.689 58.2061 102.248 58.2061C101.807 58.2061 101.455 58.3603 101.168 58.6908C100.926 58.9992 100.772 59.4839 100.772 60.1449Z" fill="black"/>
<path d="M106.281 62.7019V57.5906H107.052V58.3177C107.427 57.7448 107.978 57.4805 108.683 57.4805C108.991 57.4805 109.278 57.5466 109.52 57.6567C109.784 57.7669 109.96 57.9211 110.093 58.0973C110.225 58.2736 110.313 58.4939 110.357 58.7363C110.379 58.8905 110.401 59.1769 110.401 59.5734V62.7239H109.542V59.6175C109.542 59.265 109.498 59.0006 109.432 58.8244C109.366 58.6481 109.255 58.5159 109.079 58.4058C108.903 58.2956 108.705 58.2516 108.484 58.2516C108.11 58.2516 107.801 58.3617 107.537 58.6041C107.273 58.8464 107.14 59.287 107.14 59.948V62.746H106.281V62.7019Z" fill="black"/>
<path d="M115.884 62.7009V58.2506H115.113V57.5676H115.884V57.0168C115.884 56.6643 115.906 56.422 115.973 56.2457C116.061 56.0254 116.193 55.8491 116.413 55.6949C116.633 55.5627 116.92 55.4746 117.294 55.4746C117.537 55.4746 117.801 55.4966 118.11 55.5627L117.977 56.3118C117.801 56.2898 117.625 56.2677 117.471 56.2677C117.206 56.2677 117.03 56.3338 116.92 56.444C116.81 56.5541 116.766 56.7745 116.766 57.0829V57.5456H117.757V58.2285H116.766V62.6788H115.884V62.7009Z" fill="black"/>
<path d="M118.66 60.1449C118.66 59.1975 118.925 58.4925 119.453 58.0298C119.894 57.6553 120.423 57.457 121.062 57.457C121.767 57.457 122.339 57.6773 122.78 58.14C123.221 58.6027 123.441 59.2416 123.441 60.0567C123.441 60.7177 123.353 61.2244 123.155 61.621C122.956 61.9955 122.67 62.2819 122.295 62.5022C121.921 62.7005 121.502 62.8106 121.062 62.8106C120.357 62.8106 119.762 62.5903 119.321 62.1277C118.88 61.665 118.66 61.0041 118.66 60.1449ZM119.563 60.1449C119.563 60.8058 119.696 61.2905 119.982 61.621C120.268 61.9514 120.621 62.1056 121.062 62.1056C121.502 62.1056 121.855 61.9514 122.141 61.621C122.428 61.2905 122.56 60.7838 122.56 60.1228C122.56 59.4839 122.405 58.9992 122.119 58.6908C121.833 58.3603 121.48 58.2061 121.04 58.2061C120.599 58.2061 120.246 58.3603 119.96 58.6908C119.696 58.9992 119.563 59.4839 119.563 60.1449Z" fill="black"/>
<path d="M125.047 62.7005V57.5892H125.818V58.3603C126.016 58.0078 126.193 57.7655 126.369 57.6333C126.545 57.5231 126.721 57.457 126.92 57.457C127.206 57.457 127.514 57.5452 127.801 57.7434L127.492 58.5586C127.272 58.4264 127.074 58.3603 126.853 58.3603C126.655 58.3603 126.501 58.4264 126.347 58.5366C126.193 58.6467 126.082 58.8009 126.016 59.0213C125.928 59.3297 125.862 59.6602 125.862 60.0347V62.7225H125.047V62.7005Z" fill="black"/>
<path d="M132.32 62.701V55.6289H133.246V61.8638H136.727V62.701H132.32Z" fill="black"/>
<path d="M138.312 55.6289H139.172V56.6203H138.312V55.6289ZM138.312 57.5897H139.172V62.701H138.312V57.5897Z" fill="black"/>
<path d="M141.31 62.7009V58.2506H140.539V57.5676H141.31V57.0168C141.31 56.6643 141.332 56.422 141.398 56.2457C141.486 56.0254 141.619 55.8491 141.839 55.6949C142.059 55.5627 142.346 55.4746 142.72 55.4746C142.962 55.4746 143.227 55.4966 143.535 55.5627L143.403 56.3118C143.227 56.2898 143.051 56.2677 142.896 56.2677C142.632 56.2677 142.456 56.3338 142.346 56.444C142.235 56.5541 142.191 56.7745 142.191 57.0829V57.5456H143.183V58.2285H142.191V62.6788H141.31V62.7009Z" fill="black"/>
<path d="M147.918 61.0495L148.822 61.1597C148.689 61.6885 148.425 62.085 148.028 62.3714C147.654 62.6578 147.169 62.812 146.574 62.812C145.825 62.812 145.23 62.5917 144.79 62.1291C144.349 61.6664 144.129 61.0275 144.129 60.1903C144.129 59.3311 144.349 58.6702 144.79 58.1855C145.23 57.7008 145.803 57.4805 146.508 57.4805C147.191 57.4805 147.742 57.7228 148.183 58.1855C148.623 58.6481 148.822 59.3091 148.822 60.1463C148.822 60.1903 148.822 60.2784 148.822 60.3886H145.01C145.032 60.9614 145.208 61.38 145.495 61.6885C145.781 61.9969 146.134 62.1291 146.552 62.1291C146.861 62.1291 147.147 62.041 147.368 61.8867C147.61 61.6885 147.786 61.4241 147.918 61.0495ZM145.076 59.6616H147.918C147.874 59.2209 147.764 58.9125 147.588 58.6922C147.301 58.3617 146.949 58.1855 146.508 58.1855C146.112 58.1855 145.781 58.3177 145.517 58.582C145.253 58.8464 145.098 59.1989 145.076 59.6616Z" fill="black"/>
<path d="M154.176 0C154.992 0 155.785 0.198282 156.556 0.616877C157.327 1.03547 157.922 1.63032 158.362 2.40141C158.803 3.17251 159.001 3.98767 159.001 4.82486C159.001 5.66205 158.781 6.45518 158.362 7.22627C157.944 7.99737 157.349 8.59221 156.578 9.01081C155.807 9.4294 155.014 9.64972 154.176 9.64972C153.339 9.64972 152.546 9.4294 151.775 9.01081C151.004 8.59221 150.409 7.99737 149.99 7.22627C149.572 6.45518 149.352 5.66205 149.352 4.82486C149.352 3.98767 149.572 3.17251 149.99 2.40141C150.431 1.63032 151.026 1.03547 151.797 0.616877C152.568 0.198282 153.361 0 154.176 0ZM154.176 0.793127C153.493 0.793127 152.833 0.969378 152.194 1.32188C151.555 1.67438 151.048 2.15907 150.695 2.82001C150.343 3.45892 150.145 4.14189 150.145 4.84689C150.145 5.55189 150.321 6.21283 150.673 6.85174C151.026 7.49065 151.533 7.99737 152.172 8.34987C152.81 8.70237 153.471 8.87862 154.176 8.87862C154.881 8.87862 155.542 8.70237 156.181 8.34987C156.82 7.99737 157.327 7.49065 157.679 6.85174C158.032 6.21283 158.208 5.55189 158.208 4.84689C158.208 4.14189 158.032 3.48095 157.657 2.82001C157.305 2.1811 156.798 1.67438 156.159 1.32188C155.52 0.969378 154.859 0.793127 154.176 0.793127ZM152.061 7.51268V2.31329H153.846C154.463 2.31329 154.903 2.35735 155.168 2.46751C155.432 2.55563 155.653 2.73188 155.829 2.97423C155.983 3.21657 156.071 3.45892 156.071 3.74532C156.071 4.11986 155.939 4.45033 155.675 4.73673C155.41 5.02314 155.036 5.17736 154.595 5.22142C154.771 5.28752 154.925 5.39767 155.036 5.4858C155.234 5.68408 155.498 6.03658 155.807 6.52127L156.446 7.53471H155.41L154.948 6.71955C154.595 6.08064 154.287 5.66205 154.066 5.50783C153.912 5.39767 153.692 5.33158 153.383 5.33158H152.899V7.53471H152.061V7.51268ZM152.899 4.58251H153.912C154.397 4.58251 154.727 4.51642 154.903 4.3622C155.08 4.20798 155.168 4.03173 155.168 3.78939C155.168 3.63517 155.124 3.50298 155.036 3.37079C154.948 3.2386 154.837 3.15048 154.683 3.10642C154.529 3.04032 154.243 3.01829 153.846 3.01829H152.899V4.58251Z" fill="black"/>
</g>
</g>
<defs>
<clipPath id="clip0_7689_1448">
<rect width="159" height="64.6619" fill="white"/>
</clipPath>
<clipPath id="clip1_7689_1448">
<rect width="159" height="64.6619" fill="white"/>
</clipPath>
</defs>
</svg>
